<?xml version="1.0" standalone="no"?>
<!DOCTYPE svg PUBLIC "-//W3C//DTD SVG 20010904//EN"
 "http://www.w3.org/TR/2001/REC-SVG-20010904/DTD/svg10.dtd">
<svg version="1.0" xmlns="http://www.w3.org/2000/svg"
 width="200.000000pt" height="200.000000pt" viewBox="0 0 200.000000 200.000000"
 preserveAspectRatio="xMidYMid meet">
<metadata>
Created by potrace 1.11, written by Peter Selinger 2001-2013
</metadata>
<g transform="translate(0.000000,200.000000) scale(0.100000,-0.100000)"
fill="#000000" stroke="none">
<path d="M281 1894 c-25 -22 -26 -25 -29 -166 l-3 -143 -56 -2 c-46 -1 -60 -6
-82 -27 l-26 -26 0 -201 0 -201 30 -24 c17 -13 53 -36 82 -51 l52 -28 3 -447
3 -447 23 -23 23 -23 700 0 701 0 24 28 24 28 0 442 0 442 53 28 c28 15 65 38
81 51 l30 23 0 199 1 199 -26 29 c-22 25 -32 29 -82 29 l-57 1 0 137 c0 131
-1 139 -24 167 l-25 29 -697 0 -696 0 -27 -23z m1301 -156 c3 -11 3 -111 -1
-144 -1 -7 -182 -10 -583 -10 l-582 1 1 75 c1 41 1 78 2 83 1 4 262 7 580 7
454 0 580 -3 583 -12z m-938 -697 c27 -13 60 -24 73 -25 12 0 23 -4 23 -7 0
-3 26 -4 57 -2 55 3 131 23 179 48 20 10 31 9 72 -11 98 -47 197 -49 305 -5
65 26 74 28 95 14 13 -8 48 -22 79 -31 l57 -17 0 -375 0 -375 -147 -3 -147 -3
0 224 0 224 -26 27 -27 26 -236 0 c-217 0 -238 -2 -261 -20 l-25 -19 -3 -230
-3 -231 -147 0 -147 0 2 368 c0 202 2 372 2 379 1 6 22 16 49 23 26 6 63 20
82 30 19 11 37 18 40 17 3 -2 27 -13 54 -26z"/>
</g>
</svg>
